<svg version="1.1" id="Layer_1" xmlns="http://www.w3.org/2000/svg" xmlns:xlink="http://www.w3.org/1999/xlink" x="0px" y="0px"
	 width="100%" viewBox="0 0 277 256" enable-background="new 0 0 277 256" xml:space="preserve">
<path fill="#08132B" opacity="1.000000" stroke="none" 
	d="
M278.000000,92.000000 
	C278.000000,147.333328 278.000000,202.166672 278.000000,257.000000 
	C185.666672,257.000000 93.333336,257.000000 1.000000,257.000000 
	C1.000000,171.666672 1.000000,86.333336 1.000000,1.000000 
	C93.333336,1.000000 185.666672,1.000000 278.000000,1.000000 
	C278.000000,31.166666 278.000000,61.333332 278.000000,92.000000 
M240.021988,120.667183 
	C241.974854,112.349380 243.942169,104.034935 245.876648,95.712860 
	C247.944275,86.817879 252.856537,80.590668 261.915253,77.920456 
	C265.346619,76.908997 268.606567,75.316170 272.454956,73.784332 
	C272.382416,73.167732 272.309875,72.551125 271.892944,71.275856 
	C270.488647,70.786179 269.119232,70.121277 267.674683,69.834007 
	C253.682541,67.051636 246.273895,58.578999 244.527725,44.413513 
	C243.732132,37.959465 241.556061,31.675592 239.281708,25.027891 
	C238.554489,26.561863 237.557205,28.027882 237.150894,29.642599 
	C235.950378,34.413643 234.983490,39.243469 233.382782,43.633430 
	C223.668884,25.595469 208.495697,16.202190 188.085648,16.089834 
	C147.272629,15.865162 106.457481,15.997497 65.643242,16.028479 
	C34.885872,16.051826 13.380462,37.444534 13.332986,68.141632 
	C13.271152,108.122856 13.267815,148.104309 13.333939,188.085526 
	C13.384813,218.847000 34.799942,240.131760 65.626129,240.154572 
	C105.940598,240.184402 146.255127,240.177551 186.569565,240.134476 
	C190.055847,240.130753 193.601822,240.078568 197.018112,239.473358 
	C221.681320,235.104263 238.569519,214.941040 238.765854,189.506378 
	C238.942017,166.686325 238.868362,143.864319 239.191971,121.059181 
	C239.191971,121.059181 239.372437,120.835571 240.021988,120.667183 
z"/>
<path fill="#FDFCFC" opacity="1.000000" stroke="none" 
	d="
M238.904938,121.043182 
	C238.868362,143.864319 238.942017,166.686325 238.765854,189.506378 
	C238.569519,214.941040 221.681320,235.104263 197.018112,239.473358 
	C193.601822,240.078568 190.055847,240.130753 186.569565,240.134476 
	C146.255127,240.177551 105.940598,240.184402 65.626129,240.154572 
	C34.799942,240.131760 13.384813,218.847000 13.333939,188.085526 
	C13.267815,148.104309 13.271152,108.122856 13.332986,68.141632 
	C13.380462,37.444534 34.885872,16.051826 65.643242,16.028479 
	C106.457481,15.997497 147.272629,15.865162 188.085648,16.089834 
	C208.495697,16.202190 223.668884,25.595469 233.622131,44.238113 
	C233.523224,46.795151 233.347580,48.792881 232.817719,50.691761 
	C230.832611,57.805561 227.554398,63.930931 219.949127,66.089203 
	C219.488983,58.619617 217.670486,52.116932 213.182434,46.458702 
	C215.650864,45.347492 217.868820,44.468800 220.222595,43.536301 
	C216.747742,41.393589 212.851257,40.144669 210.908722,37.474342 
	C208.894180,34.705032 208.772202,30.558969 207.822495,27.015038 
	C207.467697,27.031275 207.112915,27.047512 206.758118,27.063747 
	C205.591629,30.912218 204.425140,34.760689 202.906174,38.396095 
	C197.225510,37.097187 191.903290,35.104820 186.568207,35.069839 
	C146.243454,34.805447 105.916153,34.906940 65.589684,34.932812 
	C45.172798,34.945911 32.172157,47.951897 32.153851,68.418571 
	C32.118225,108.245117 32.119701,148.071732 32.153469,187.898270 
	C32.170616,208.121857 45.086102,221.200897 65.153358,221.228180 
	C105.813049,221.283463 146.472885,221.260468 187.132584,221.209961 
	C190.110001,221.206268 193.177017,221.093430 196.048706,220.397339 
	C210.533371,216.886200 219.846985,204.734512 219.889359,189.218475 
	C219.989456,152.558792 219.972626,115.898796 220.336060,79.290588 
	C227.854645,82.569550 231.247421,88.633980 232.984497,95.899178 
	C234.986832,104.273613 236.933884,112.661270 238.904938,121.043182 
z"/>
<path fill="#FCD837" opacity="1.000000" stroke="none" 
	d="
M219.979599,66.543854 
	C227.554398,63.930931 230.832611,57.805561 232.817719,50.691761 
	C233.347580,48.792881 233.523224,46.795151 233.893341,44.446548 
	C234.983490,39.243469 235.950378,34.413643 237.150894,29.642599 
	C237.557205,28.027882 238.554489,26.561863 239.647888,25.589773 
	C240.707642,35.546082 241.042587,44.985703 242.218765,54.319313 
	C243.025970,60.725132 244.355789,67.431068 252.684174,68.732269 
	C259.209381,69.751740 265.720154,70.863670 272.237335,71.934525 
	C272.309875,72.551125 272.382416,73.167732 271.793579,73.878563 
	C266.433929,74.995445 261.754242,76.114807 257.033722,77.021744 
	C245.129974,79.308754 241.373306,83.913277 240.980957,96.030884 
	C240.712982,104.307800 239.926880,112.567932 239.372437,120.835571 
	C239.372437,120.835571 239.191971,121.059181 239.048462,121.051178 
	C236.933884,112.661270 234.986832,104.273613 232.984497,95.899178 
	C231.247421,88.633980 227.854645,82.569550 219.992615,79.134293 
	C215.895599,77.683342 212.440811,76.524162 209.073944,75.149628 
	C207.970261,74.699043 207.094788,73.689400 206.114960,72.935417 
	C207.158920,72.073257 208.074570,70.897179 209.271042,70.408134 
	C212.780685,68.973557 216.402008,67.812210 219.979599,66.543854 
z"/>
<path fill="#ECB104" opacity="1.000000" stroke="none" 
	d="
M239.697205,120.751373 
	C239.926880,112.567932 240.712982,104.307800 240.980957,96.030884 
	C241.373306,83.913277 245.129974,79.308754 257.033722,77.021744 
	C261.754242,76.114807 266.433929,74.995445 271.538452,73.980560 
	C268.606567,75.316170 265.346619,76.908997 261.915253,77.920456 
	C252.856537,80.590668 247.944275,86.817879 245.876648,95.712860 
	C243.942169,104.034935 241.974854,112.349380 239.697205,120.751373 
z"/>
<path fill="#F5E757" opacity="1.000000" stroke="none" 
	d="
M272.065125,71.605194 
	C265.720154,70.863670 259.209381,69.751740 252.684174,68.732269 
	C244.355789,67.431068 243.025970,60.725132 242.218765,54.319313 
	C241.042587,44.985703 240.707642,35.546082 240.010101,25.733093 
	C241.556061,31.675592 243.732132,37.959465 244.527725,44.413513 
	C246.273895,58.578999 253.682541,67.051636 267.674683,69.834007 
	C269.119232,70.121277 270.488647,70.786179 272.065125,71.605194 
z"/>
<path fill="#EC5A90" opacity="1.000000" stroke="none" 
	d="
M219.949127,66.089195 
	C216.402008,67.812210 212.780685,68.973557 209.271042,70.408134 
	C208.074570,70.897179 207.158920,72.073257 206.114960,72.935417 
	C207.094788,73.689400 207.970261,74.699043 209.073944,75.149628 
	C212.440811,76.524162 215.895599,77.683342 219.659622,79.082626 
	C219.972626,115.898796 219.989456,152.558792 219.889359,189.218475 
	C219.846985,204.734512 210.533371,216.886200 196.048706,220.397339 
	C193.177017,221.093430 190.110001,221.206268 187.132584,221.209961 
	C146.472885,221.260468 105.813049,221.283463 65.153358,221.228180 
	C45.086102,221.200897 32.170616,208.121857 32.153469,187.898270 
	C32.119701,148.071732 32.118225,108.245117 32.153851,68.418571 
	C32.172157,47.951897 45.172798,34.945911 65.589684,34.932812 
	C105.916153,34.906940 146.243454,34.805447 186.568207,35.069839 
	C191.903290,35.104820 197.225510,37.097187 202.743454,38.691185 
	C200.075317,40.425728 197.217422,41.652111 194.359528,42.878498 
	C194.105927,43.312214 193.852325,43.745930 193.598740,44.179646 
	C204.126541,44.004509 204.863876,51.961468 207.117645,58.932339 
	C208.350296,56.799034 208.801956,54.782196 209.614670,52.923187 
	C210.554520,50.773335 211.812241,48.762447 212.931946,46.691223 
	C217.670486,52.116932 219.488983,58.619617 219.949127,66.089195 
M193.073090,74.399155 
	C192.720657,73.979576 192.368240,73.559990 191.282410,73.280586 
	C190.537430,75.787392 189.568542,78.252434 189.091675,80.809242 
	C187.908813,87.151520 184.643555,91.458549 178.061600,92.056419 
	C177.791580,79.423950 171.415283,73.170738 158.754303,73.137733 
	C153.591370,73.124268 148.423462,72.999527 143.267273,73.186172 
	C140.211029,73.296806 138.224747,72.574989 136.335922,69.776070 
	C131.845581,63.122128 122.198936,61.994675 117.410698,68.211807 
	C113.701996,73.027260 109.649681,73.411934 104.598526,73.172752 
	C100.610374,72.983925 96.605934,73.115654 92.608955,73.140930 
	C80.766884,73.215820 74.060547,79.917755 74.048531,91.795906 
	C74.021080,118.943085 74.023491,146.090332 74.048630,173.237518 
	C74.059891,185.398453 80.678352,191.926147 92.992630,191.939896 
	C114.976845,191.964462 136.961121,191.961502 158.945358,191.941422 
	C171.566055,191.929886 178.000397,185.494202 178.024307,172.907425 
	C178.071136,148.259857 178.105576,123.612251 178.858856,99.012886 
	C184.600952,100.259178 187.458939,104.266197 188.854996,109.588898 
	C189.400543,111.668877 189.511887,113.885292 190.252914,115.879028 
	C190.506912,116.562447 192.077103,116.756668 193.550995,116.616264 
	C195.005890,106.897156 198.970108,99.300537 209.744049,97.449211 
	C209.874924,97.426720 209.974091,97.219749 210.613434,96.677628 
	C209.065811,95.803574 207.518204,94.929520 205.640015,93.450310 
	C199.281250,91.430389 195.856750,87.074722 194.954971,80.480057 
	C194.695053,78.579147 193.700958,76.778633 193.013519,74.993240 
	C193.013519,74.993240 193.081558,74.990608 193.073090,74.399155 
z"/>
<path fill="#F4B60B" opacity="1.000000" stroke="none" 
	d="
M213.182434,46.458702 
	C211.812241,48.762447 210.554520,50.773335 209.614670,52.923187 
	C208.801956,54.782196 208.350296,56.799034 207.117645,58.932339 
	C204.863876,51.961468 204.126541,44.004509 193.598740,44.179646 
	C193.852325,43.745930 194.105927,43.312214 194.359528,42.878498 
	C197.217422,41.652111 200.075317,40.425728 203.095932,38.904251 
	C204.425140,34.760689 205.591629,30.912218 206.758118,27.063747 
	C207.112915,27.047512 207.467697,27.031275 207.822495,27.015038 
	C208.772202,30.558969 208.894180,34.705032 210.908722,37.474342 
	C212.851257,40.144669 216.747742,41.393589 220.222595,43.536301 
	C217.868820,44.468800 215.650864,45.347492 213.182434,46.458702 
z"/>
<path fill="#FDF0F5" opacity="1.000000" stroke="none" 
	d="
M178.145142,98.964661 
	C178.105576,123.612251 178.071136,148.259857 178.024307,172.907425 
	C178.000397,185.494202 171.566055,191.929886 158.945358,191.941422 
	C136.961121,191.961502 114.976845,191.964462 92.992630,191.939896 
	C80.678352,191.926147 74.059891,185.398453 74.048630,173.237518 
	C74.023491,146.090332 74.021080,118.943085 74.048531,91.795906 
	C74.060547,79.917755 80.766884,73.215820 92.608955,73.140930 
	C96.605934,73.115654 100.610374,72.983925 104.598526,73.172752 
	C109.649681,73.411934 113.701996,73.027260 117.410698,68.211807 
	C122.198936,61.994675 131.845581,63.122128 136.335922,69.776070 
	C138.224747,72.574989 140.211029,73.296806 143.267273,73.186172 
	C148.423462,72.999527 153.591370,73.124268 158.754303,73.137733 
	C171.415283,73.170738 177.791580,79.423950 177.824036,92.691895 
	C176.730408,93.614822 175.874344,93.902267 174.987976,93.743401 
	C174.824112,80.712372 170.152069,76.263298 157.038742,76.233299 
	C148.374420,76.213478 148.374435,76.213478 148.164307,84.830772 
	C148.026138,90.496872 145.654999,93.496597 140.223816,93.647156 
	C130.737244,93.910118 121.233925,93.880676 111.745888,93.643425 
	C107.223618,93.530334 104.344498,91.001144 103.906883,86.192146 
	C103.614128,82.975082 104.325813,78.154358 102.583054,76.948204 
	C100.176910,75.282928 95.881927,76.345345 92.395805,76.244316 
	C92.063324,76.234688 91.729073,76.247543 91.396973,76.269791 
	C82.200912,76.885818 77.160805,82.188026 77.148392,91.477844 
	C77.111900,118.795792 77.113823,146.113846 77.146294,173.431793 
	C77.158203,183.449234 82.556465,188.842438 92.622704,188.862854 
	C114.776833,188.907791 136.931152,188.900558 159.085327,188.867279 
	C169.771408,188.851242 174.916748,183.613007 174.931168,172.809494 
	C174.964508,147.823807 174.970474,122.838081 175.333588,97.853333 
	C176.501480,98.224411 177.323318,98.594536 178.145142,98.964661 
M113.112480,90.655151 
	C121.599464,90.656769 130.086563,90.683617 138.573380,90.646980 
	C141.747971,90.633278 144.799606,90.120377 145.071594,86.096954 
	C145.280701,83.003548 145.113251,79.884689 145.113251,76.602440 
	C143.757675,76.429398 142.938156,76.155632 142.166641,76.254868 
	C138.329483,76.748375 136.040024,75.542488 133.948364,71.829422 
	C130.419937,65.565826 121.034088,66.249451 117.592674,72.827751 
	C116.186203,75.516251 114.613007,76.466667 111.808838,76.253120 
	C110.376778,76.144066 108.915359,76.420555 106.972740,76.557693 
	C106.972740,79.324364 107.076797,81.785027 106.948730,84.233551 
	C106.748878,88.054466 108.320946,90.274460 113.112480,90.655151 
z"/>
<path fill="#FCD737" opacity="1.000000" stroke="none" 
	d="
M175.018280,94.189713 
	C175.874344,93.902267 176.730408,93.614822 177.863647,93.121307 
	C184.643555,91.458549 187.908813,87.151520 189.091675,80.809242 
	C189.568542,78.252434 190.537430,75.787392 191.681427,73.491631 
	C192.414154,74.131989 192.747864,74.561295 193.081558,74.990601 
	C193.081558,74.990608 193.013519,74.993240 193.004608,75.422897 
	C192.998428,77.513908 192.852951,79.191071 193.028091,80.834045 
	C194.112473,91.006493 194.022522,93.276169 205.970581,94.055466 
	C207.518204,94.929520 209.065811,95.803574 209.892532,96.858376 
	C207.526840,97.027252 205.881485,96.981842 204.237350,97.009277 
	C196.931686,97.131195 193.711304,100.009285 193.107529,107.310394 
	C192.837326,110.577744 193.051575,113.885162 193.045975,117.174393 
	C192.077103,116.756668 190.506912,116.562447 190.252914,115.879028 
	C189.511887,113.885292 189.400543,111.668877 188.854996,109.588898 
	C187.458939,104.266197 184.600952,100.259178 178.502014,98.988770 
	C177.323318,98.594536 176.501480,98.224411 175.139297,97.643799 
	C174.738724,96.352119 174.878510,95.270912 175.018280,94.189713 
z"/>
<path fill="#F4B20C" opacity="1.000000" stroke="none" 
	d="
M193.298492,116.895325 
	C193.051575,113.885162 192.837326,110.577744 193.107529,107.310394 
	C193.711304,100.009285 196.931686,97.131195 204.237350,97.009277 
	C205.881485,96.981842 207.526840,97.027252 209.629852,97.069000 
	C209.974091,97.219749 209.874924,97.426720 209.744049,97.449211 
	C198.970108,99.300537 195.005890,106.897156 193.298492,116.895325 
z"/>
<path fill="#FCE65B" opacity="1.000000" stroke="none" 
	d="
M205.805298,93.752884 
	C194.022522,93.276169 194.112473,91.006493 193.028091,80.834045 
	C192.852951,79.191071 192.998428,77.513908 193.019592,75.392319 
	C193.700958,76.778633 194.695053,78.579147 194.954971,80.480057 
	C195.856750,87.074722 199.281250,91.430389 205.805298,93.752884 
z"/>
<path fill="#FCE65B" opacity="1.000000" stroke="none" 
	d="
M193.077332,74.694878 
	C192.747864,74.561295 192.414154,74.131989 192.048126,73.421539 
	C192.368240,73.559990 192.720657,73.979576 193.077332,74.694878 
z"/>
<path fill="#EC5B91" opacity="1.000000" stroke="none" 
	d="
M174.987976,93.743401 
	C174.878510,95.270912 174.738724,96.352119 174.793243,97.642853 
	C174.970474,122.838081 174.964508,147.823807 174.931168,172.809494 
	C174.916748,183.613007 169.771408,188.851242 159.085327,188.867279 
	C136.931152,188.900558 114.776833,188.907791 92.622704,188.862854 
	C82.556465,188.842438 77.158203,183.449234 77.146294,173.431793 
	C77.113823,146.113846 77.111900,118.795792 77.148392,91.477844 
	C77.160805,82.188026 82.200912,76.885818 91.396973,76.269791 
	C91.729073,76.247543 92.063324,76.234688 92.395805,76.244316 
	C95.881927,76.345345 100.176910,75.282928 102.583054,76.948204 
	C104.325813,78.154358 103.614128,82.975082 103.906883,86.192146 
	C104.344498,91.001144 107.223618,93.530334 111.745888,93.643425 
	C121.233925,93.880676 130.737244,93.910118 140.223816,93.647156 
	C145.654999,93.496597 148.026138,90.496872 148.164307,84.830772 
	C148.374435,76.213478 148.374420,76.213478 157.038742,76.233299 
	C170.152069,76.263298 174.824112,80.712372 174.987976,93.743401 
M142.545044,161.557068 
	C148.306061,160.939194 154.365189,162.878952 160.634933,160.009918 
	C155.919662,157.352737 134.019272,157.557266 130.905518,161.029205 
	C134.459610,161.204819 138.013718,161.380432 142.545044,161.557068 
M112.357780,158.145477 
	C105.547523,158.532043 98.590439,157.345367 91.932632,159.365387 
	C96.227394,162.537262 118.004135,162.186218 121.714127,158.630936 
	C118.323784,158.435181 115.816963,158.290436 112.357780,158.145477 
M120.378395,124.447433 
	C119.330688,123.652504 118.301247,122.198456 117.232346,122.168854 
	C109.907318,121.965996 102.573631,122.024422 95.243774,122.099937 
	C94.096169,122.111763 92.953857,122.638397 91.809097,122.926987 
	C91.842102,123.624947 91.875107,124.322906 91.908112,125.020866 
	C101.153275,125.192596 110.403893,125.250694 120.378395,124.447433 
M150.407471,122.056885 
	C143.963287,122.570778 137.316055,120.954460 131.068634,123.974480 
	C140.645355,125.303764 150.170425,125.196266 159.694412,124.993530 
	C159.714767,124.113770 159.735107,123.234009 159.755463,122.354256 
	C156.960251,122.255150 154.165039,122.156052 150.407471,122.056885 
z"/>
<path fill="#ED5F94" opacity="1.000000" stroke="none" 
	d="
M112.676300,90.635254 
	C108.320946,90.274460 106.748878,88.054466 106.948730,84.233551 
	C107.076797,81.785027 106.972740,79.324364 106.972740,76.557693 
	C108.915359,76.420555 110.376778,76.144066 111.808838,76.253120 
	C114.613007,76.466667 116.186203,75.516251 117.592674,72.827751 
	C121.034088,66.249451 130.419937,65.565826 133.948364,71.829422 
	C136.040024,75.542488 138.329483,76.748375 142.166641,76.254868 
	C142.938156,76.155632 143.757675,76.429398 145.113251,76.602440 
	C145.113251,79.884689 145.280701,83.003548 145.071594,86.096954 
	C144.799606,90.120377 141.747971,90.633278 138.573380,90.646980 
	C130.086563,90.683617 121.599464,90.656769 112.676300,90.635254 
z"/>
<path fill="#FDEBF1" opacity="1.000000" stroke="none" 
	d="
M142.056427,161.556549 
	C138.013718,161.380432 134.459610,161.204819 130.905518,161.029205 
	C134.019272,157.557266 155.919662,157.352737 160.634933,160.009918 
	C154.365189,162.878952 148.306061,160.939194 142.056427,161.556549 
z"/>
<path fill="#FDEBF1" opacity="1.000000" stroke="none" 
	d="
M112.833954,158.145584 
	C115.816963,158.290436 118.323784,158.435181 121.714127,158.630936 
	C118.004135,162.186218 96.227394,162.537262 91.932632,159.365387 
	C98.590439,157.345367 105.547523,158.532043 112.833954,158.145584 
z"/>
<path fill="#FDEFF4" opacity="1.000000" stroke="none" 
	d="
M120.025780,124.684250 
	C110.403893,125.250694 101.153275,125.192596 91.908112,125.020866 
	C91.875107,124.322906 91.842102,123.624947 91.809097,122.926987 
	C92.953857,122.638397 94.096169,122.111763 95.243774,122.099937 
	C102.573631,122.024422 109.907318,121.965996 117.232346,122.168854 
	C118.301247,122.198456 119.330688,123.652504 120.025780,124.684250 
z"/>
<path fill="#FDEFF4" opacity="1.000000" stroke="none" 
	d="
M150.888641,122.056915 
	C154.165039,122.156052 156.960251,122.255150 159.755463,122.354256 
	C159.735107,123.234009 159.714767,124.113770 159.694412,124.993530 
	C150.170425,125.196266 140.645355,125.303764 131.068634,123.974480 
	C137.316055,120.954460 143.963287,122.570778 150.888641,122.056915 
z"/>
</svg>